<?xml version="1.0" encoding="utf-8"?>
<!-- Generator: Adobe Illustrator 24.0.1, SVG Export Plug-In . SVG Version: 6.00 Build 0)  -->
<svg version="1.1" id="Layer_1" xmlns="http://www.w3.org/2000/svg" xmlns:xlink="http://www.w3.org/1999/xlink" x="0px" y="0px"
	 viewBox="0 0 100 32" style="enable-background:new 0 0 100 32;" xml:space="preserve">
<style type="text/css">
	.st0{fill:none;stroke:#333333;stroke-width:0.5;stroke-miterlimit:10;}
</style>
<path class="st0" d="M0.5,19.8c0-0.2,0-0.7,0-0.9s-0.2,0,0-0.1s0.8-0.2,1-0.2c0.2,0,0,0.3,0,0.1c0-0.2-0.2-0.8,0-1s0.8-0.1,1-0.1
	s0,0.3,0,0.4s-0.2,0.4,0,0.4s0.8,0.1,1,0c0.2-0.1,0-0.2,0-0.4c0-0.2-0.2-0.5,0-0.6s0.8,0,1,0c0.2,0,0,0.1,0,0s-0.2-0.2,0-0.2
	c0.2,0,0.8,0.2,1,0.2c0.2,0,0,0.2,0,0c0-0.2-0.2-0.8,0-0.8c0.2,0,0.8,0.2,1,0.6c0.2,0.3,0,0.9,0,1.1c0,0.2-0.2-0.1,0-0.1
	c0.2-0.1,0.8-0.3,1-0.3c0.2,0.1,0,0.4,0,0.5s-0.2,0.2,0,0.3c0.2,0.2,0.8,0.4,1,0.5c0.2,0.2-0.2,0.4,0,0.3c0.2-0.1,0.8-0.6,1-0.7
	c0.2-0.1,0,0.1,0,0.2s-0.2,0.3,0,0s0.8-1,1-1.3s0,0.1,0,0.2s-0.2,0,0,0.1c0.2,0.2,0.8,0.5,1,0.7s0,0.2,0,0.3s-0.2,0,0,0.1
	s0.8,0,1,0.2s0,0.6,0,0.8s-0.2,0.3,0,0.4c0.2,0,0.8-0.3,1-0.2s0,0.2,0,0.5s-0.2,0.8,0,0.9c0.2,0.1,0.8-0.3,1-0.4s0,0.1,0,0
	c0,0-0.2-0.1,0-0.2s0.8-0.3,1-0.5s0-0.1,0-0.3s-0.2-0.8,0-0.7s0.8,1.1,1,1.3c0.2,0.2-0.2-0.1,0-0.2c0.2-0.1,0.8-0.2,1-0.2
	c0.2,0,0,0.1,0,0.1s-0.2,0.2,0,0.2c0.2,0.1,0.8,0.1,1,0s0-0.5,0-0.5c0,0.1-0.2,0.8,0,0.8c0.2,0,0.8-0.8,1-0.9s0,0.4,0,0.6
	c0,0.2-0.2,0,0,0.2s0.8,0.9,1,0.9c0.2,0.1,0-0.4,0-0.6c0-0.2-0.2-0.5,0-0.5c0.2,0,0.8,0.4,1,0.4s0-0.4,0-0.6s-0.2-0.5,0-0.5
	c0.2,0,0.8,0.3,1,0.6c0.2,0.2,0,0.4,0,0.6s-0.2,0.3,0,0.3c0.2,0,0.8-0.3,1-0.2c0.2,0.1,0,0.7,0,0.7s-0.2-0.7,0-0.7
	c0.2,0,0.8,0.3,1,0.5s-0.2,0.5,0,0.4s0.8-0.7,1-0.7s0,0.6,0,0.6c0,0-0.2-0.6,0-0.5s0.8,0.8,1,1s0-0.1,0,0s-0.2,0.5,0,0.4
	s0.8-0.7,1-0.8c0.2-0.2,0-0.1,0,0s-0.2,0.2,0,0.3c0.2,0.1,0.8,0,1,0s0,0.2,0,0c0-0.2-0.2-0.8,0-1.1c0.2-0.3,0.8-0.2,1-0.4s0,0,0-0.2
	s-0.2-0.7,0-0.7c0.2-0.1,0.8,0.3,1,0.4c0.2,0.1,0-0.1,0,0.1c0,0.2-0.2,0.8,0,0.9c0.2,0.2,0.8-0.1,1-0.2c0.2,0,0-0.1,0,0
	c0,0.2-0.2,0.6,0,0.8s0.8,0,1,0c0.2,0.1,0,0.1,0,0.2s-0.2,0.2,0,0.4s0.8,0.3,1,0.4c0.2,0.1-0.2,0.1,0-0.1s0.8-0.6,1-1s0-0.9,0-0.8
	s-0.2,1.3,0,1.4c0.2,0.1,0.8-0.7,1-0.7s0,0.5,0,0.6c0,0.1-0.2,0,0-0.2s0.8-0.3,1-0.6s0-0.6,0-0.8s-0.2,0.1,0,0
	c0.2-0.1,0.8-0.2,1-0.3c0.2,0,0,0,0,0s-0.2-0.1,0,0c0.2,0,0.8,0.2,1,0.2s0,0,0,0s-0.2,0.1,0-0.1c0.2-0.2,0.8-0.6,1-0.7s0,0,0,0
	s-0.2,0.2,0,0c0.2-0.2,0.8-0.7,1-0.9s0-0.3,0-0.3s-0.2,0.1,0,0.2c0.2,0.1,0.8,0,1,0.1s-0.2,0.4,0,0.4c0.2,0.1,0.8-0.1,1-0.1
	c0.2,0,0,0.3,0,0.2c0-0.1-0.2-0.5,0-0.5s0.8,0.1,1,0.3c0.2,0.2,0,0.6,0,0.8s-0.2,0.4,0,0.4c0.2,0,0.8-0.1,1-0.2s0-0.4,0-0.4
	s-0.2,0.2,0,0.3c0.2,0.1,0.8-0.1,1,0.1s0,0.4,0,0.6s-0.2,0.4,0,0.7s0.8,0.6,1,0.6c0.2,0,0-0.4,0-0.4s-0.2,0.1,0,0.2
	c0.2,0,0.8,0.1,1,0c0.2-0.1,0-0.3,0-0.3s-0.2,0,0,0.1c0.2,0.1,0.8,0.1,1,0.3c0.2,0.2,0,0.6,0,0.7s-0.2-0.1,0,0s0.8,0.2,1,0.6
	s-0.2,0.8,0,1.3c0.2,0.4,0.8,0.8,1,1c0.2,0.2,0-0.3,0,0s-0.2,1.4,0,1.6s0.8-0.5,1-0.7c0.2-0.2,0-0.2,0-0.2s-0.2,0.1,0,0
	s0.8-0.4,1-0.4c0.2-0.1,0,0.2,0,0.2c0-0.1-0.2-0.4,0-0.4c0.2-0.1,0.8,0.1,1,0.1s0-0.1,0-0.2s-0.2-0.1,0,0s0.8,0.3,1,0.5
	c0.2,0.2,0,0.5,0,0.4c0-0.1-0.2-0.9,0-1s0.8,0.4,1,0.5c0.2,0.1,0-0.2,0-0.1s-0.2,0.7,0,0.7s0.8-0.8,1-0.9c0.2-0.1,0,0.4,0,0.4
	c0,0-0.2-0.1,0-0.4s0.8-0.6,1-0.7s0-0.1,0-0.1c0,0-0.2-0.1,0,0c0.2,0.1,0.8,0.4,1,0.4c0.2,0-0.2-0.5,0-0.6s0.8,0.1,1,0s0-0.4,0-0.6
	c0-0.1-0.2-0.1,0-0.1c0.2,0,0.8,0.2,1,0.3s0,0.2,0,0.3c0,0.1-0.2-0.1,0,0c0.2,0.1,0.8,0.4,1,0.3c0.2,0,0-0.5,0-0.5
	c0-0.1-0.2,0.3,0,0.2s0.8-0.3,1-0.4s0-0.1,0-0.2c0-0.1-0.2,0,0-0.1s0.8-0.1,1-0.1s0,0.3,0,0.2s-0.2-0.3,0-0.4s0.8-0.1,1-0.1
	s0,0.1,0,0s-0.2-0.4,0-0.5s0.8-0.1,1-0.2c0.2-0.1,0-0.1,0-0.2s-0.2,0.1,0,0.1c0.2,0,0.8,0.2,1,0.1s-0.2-0.5,0-0.8
	c0.2-0.3,0.8-0.5,1-0.7s0-0.4,0-0.5c0-0.2-0.2-0.3,0-0.3s0.8,0.1,1,0.2s0,0.4,0,0.5c0,0.1-0.2-0.1,0-0.1s0.8,0.2,1,0.1s0-0.5,0-0.7
	s-0.2,0,0,0s0.8-0.1,1,0c0.2,0.1,0,0.3,0,0.4c0,0.1-0.2,0,0-0.1s0.8-0.4,1-0.5s0,0.3,0,0.2c0-0.1-0.2-0.5,0-0.6s0.8,0,1,0
	s0,0.1,0,0.1s-0.2,0.1,0,0c0.2-0.1,0.8-0.3,1-0.4s0-0.3,0-0.4c0-0.1-0.2,0,0,0s0.8,0.1,1,0c0.2-0.1-0.2-0.3,0-0.4s0.8,0.1,1,0
	s0-0.5,0-0.7c0-0.2-0.2,0,0-0.1s0.8-0.8,1-0.7c0.2,0.1,0,1,0,1.1s-0.2-0.5,0-1s0.8-0.9,1-1.4s0-1,0-1.1s-0.2,0.5,0,0.5
	s0.8-0.5,1-0.6s0,0.3,0,0.3c0-0.1-0.2-0.4,0-0.5s0.8-0.1,1-0.2c0.2-0.2,0-0.4,0-0.6c0-0.2-0.2-0.1,0-0.2c0.2-0.1,0.8-0.1,1-0.3
	s0-0.5,0-0.8c0-0.4-0.2-0.4,0-1c0.2-0.6,0.8-2,1-2.1s0,1.3,0,1.6c0,0.3-0.2,0.1,0,0c0.2-0.1,0.8-0.6,1-0.7c0.2-0.1,0,0.3,0,0.3
	c0,0-0.2-0.3,0-0.2s0.8,0.5,1,0.5s-0.2,0,0-0.2s0.8-0.7,1-1s0-0.5,0-0.6c0,0-0.2,0.4,0,0.4c0.2,0,0.8-0.2,1-0.5s0-1,0-1.3
	c0-0.3-0.2-0.5,0-0.3s0.8,0.9,1,1.1c0.2,0.1,0-0.3,0-0.4c0-0.1-0.2-0.1,0-0.1s0.8,0.2,1,0.4c0.2,0.1,0,0.1,0,0.2
	c0,0.1-0.2,0.2,0,0.4c0.2,0.1,0.8,0.2,1,0.3c0.2,0.2,0,0.4,0,0.5c0,0.1-0.2,0.2,0,0s0.8-0.6,1-0.8s0,0.1,0,0c0-0.1-0.2-0.1,0-0.4
	s0.8-0.4,1-0.7c0.2-0.2,0-0.5,0-0.5c0,0-0.2,0.4,0,0.5s0.8,0.1,1,0.1s-0.2,0,0-0.1s0.8-0.5,1-0.5s0,0.6,0,0.7c0,0-0.2-0.4,0-0.6
	c0.2-0.1,0.8-0.1,1,0c0.2,0,0,0.2,0,0.2s-0.2,0,0,0s0.8-0.2,1-0.2c0.2-0.1,0,0,0,0s-0.2-0.2,0-0.4s0.8-0.6,1-0.6s0,0.4,0,0.6
	c0,0.2-0.2,0.3,0,0.4c0.2,0.1,0.8,0,1,0c0.2,0,0,0.1,0,0.2c0,0.1-0.2,0.2,0,0.2s0.8-0.4,1-0.5c0.2-0.1,0,0.1,0,0.1s-0.2-0.3,0-0.3
	s0.8,0.5,1,0.5s0-0.3,0-0.5s-0.2-0.1,0-0.4s0.8-0.3,1-1s0-1.7,0-2.2"/>
</svg>
